<svg xmlns="http://www.w3.org/2000/svg" width="16" height="16">
  <path fill="#409444" d="M3.5 11a.5.5 0 1 0 0-1h-3a.5.5 0 1 0 0 1h3zm12 0a.5.5 0 1 0 0-1h-3a.5.5 0 1 0 0 1h3zm-11-4a.5.5 0 0 1 0 1h-3a.5.5 0 0 1 0-1h3zm7 1a.5.5 0 1 1 0-1h3a.5.5 0 1 1 0 1h-3zm0 6a.5.5 0 1 1 0-1h3a.5.5 0 1 1 0 1h-3zm-7-1a.5.5 0 1 1 0 1h-3a.5.5 0 1 1 0-1h3z"/>
  <path d="M6.118 2.4108C6.679 2.1486 7.3198 2 8 2c.6804 0 1.3211.1486 1.882.4108l1.2644-1.2644a.5.5 0 0 1 .7072.7072l-1.1043 1.1042C11.5195 3.5958 12 4.4988 12 5.5 12 7.433 10.2091 9 8 9 5.7909 9 4 7.433 4 5.5c0-1.0012.4805-1.9042 1.2506-2.5422L4.1464 1.8535a.5.5 0 1 1 .7072-.7072l1.2645 1.2645zM6 3.0385V4h1V3h-.9342A3.5827 3.5827 0 0 0 6 3.0385zM9.9342 3H9v1h1v-.9615A3.5827 3.5827 0 0 0 9.9342 3z"/>
  <path fill="#4CAF50" d="M8 16c3.3137 0 6-2.6863 6-6s-2.6863-6-6-6-6 2.6863-6 6 2.6863 6 6 6z"/>
  <path fill-opacity=".1499" d="M8 16c-3.3137 0-6-2.6863-6-6s2.6863-6 6-6 6 2.6863 6 6-2.6863 6-6 6zm0-1c2.7614 0 5-2.2386 5-5s-2.2386-5-5-5-5 2.2386-5 5 2.2386 5 5 5z"/>
  <path fill-opacity=".2" d="M5 12c-1.1046 0-2-.8954-2-2s.8954-2 2-2 2 .8954 2 2-.8954 2-2 2zm6 0c-1.1046 0-2-.8954-2-2s.8954-2 2-2 2 .8954 2 2-.8954 2-2 2zM8 9c-1.1046 0-2-.8954-2-2s.8954-2 2-2 2 .8954 2 2-.8954 2-2 2zm0 6c-1.1046 0-2-.8954-2-2s.8954-2 2-2 2 .8954 2 2-.8954 2-2 2z"/>
  <path fill-opacity=".4361" d="M8 4c3.3137 0 6 2.6863 6 6s-2.6863 6-6 6V4z"/>
</svg>
